<?xml version="1.0" encoding="UTF-8" standalone="no"?>
<!-- Generator: Adobe Illustrator 22.0.1, SVG Export Plug-In . SVG Version: 6.00 Build 0)  -->

<svg
   xmlns:dc="http://purl.org/dc/elements/1.1/"
   xmlns:cc="http://creativecommons.org/ns#"
   xmlns:rdf="http://www.w3.org/1999/02/22-rdf-syntax-ns#"
   xmlns:svg="http://www.w3.org/2000/svg"
   xmlns="http://www.w3.org/2000/svg"
   xmlns:sodipodi="http://sodipodi.sourceforge.net/DTD/sodipodi-0.dtd"
   xmlns:inkscape="http://www.inkscape.org/namespaces/inkscape"
   version="1.1"
   id="Layer_1"
   x="0px"
   y="0px"
   viewBox="0 0 773.99998 198.5"
   xml:space="preserve"
   sodipodi:docname="tymly-logo.svg"
   width="774"
   height="198.5"
   inkscape:version="0.92.3 (2405546, 2018-03-11)"><metadata
   id="metadata842"><rdf:RDF><cc:Work
       rdf:about=""><dc:format>image/svg+xml</dc:format><dc:type
         rdf:resource="http://purl.org/dc/dcmitype/StillImage" /><dc:title></dc:title></cc:Work></rdf:RDF></metadata><defs
   id="defs840" /><sodipodi:namedview
   pagecolor="#ffffff"
   bordercolor="#666666"
   borderopacity="1"
   objecttolerance="10"
   gridtolerance="10"
   guidetolerance="10"
   inkscape:pageopacity="0"
   inkscape:pageshadow="2"
   inkscape:window-width="1920"
   inkscape:window-height="986"
   id="namedview838"
   showgrid="false"
   fit-margin-top="0"
   fit-margin-left="0"
   fit-margin-right="0"
   fit-margin-bottom="0"
   inkscape:zoom="1.2817067"
   inkscape:cx="415.81777"
   inkscape:cy="-94.722204"
   inkscape:window-x="-11"
   inkscape:window-y="-11"
   inkscape:window-maximized="1"
   inkscape:current-layer="Layer_1" />
<style
   type="text/css"
   id="style815">
	.st0{fill:#38393D;}
	.st1{fill-rule:evenodd;clip-rule:evenodd;fill:#17B3B4;}
	.st2{fill-rule:evenodd;clip-rule:evenodd;fill:#36E2DA;}
</style>
<path
   class="st0"
   d="M 108.3,0 H 3.2 C 1.4,0 0,1.4 0,3.2 v 19.1 c 0,1.8 1.4,3.2 3.2,3.2 h 43.3 v 123.3 c 0,1.8 1.4,3.2 3.2,3.2 h 23.9 c 1.8,0 3.2,-1.4 3.2,-3.2 V 25.6 h 39.6 c 2.3,0 3.8,-2.3 2.9,-4.4 L 111.2,2.1 C 110.8,0.8 109.6,0 108.3,0 Z"
   id="path817"
   inkscape:connector-curvature="0"
   style="fill:#38393d" />
<path
   class="st0"
   d="m 180.4,46.3 -25,61.5 -25.8,-61.5 c -0.5,-1.2 -1.7,-2 -2.9,-2 H 102 c -2.300002,0 -3.800002,2.3 -3.000002,4.4 L 139.4,148 121.1,194 c -0.8,2.1 0.7,4.4 3,4.4 h 24.7 c 1.3,0 2.5,-0.8 3,-2 L 210.9,48.5 c 0.8,-2.1 -0.7,-4.4 -3,-4.4 h -24.5 c -1.3,0.2 -2.5,1 -3,2.2 z"
   id="path819"
   inkscape:connector-curvature="0"
   style="fill:#38393d" />
<g
   id="g823"
   transform="translate(-34,-198.7)">
	<path
   class="st0"
   d="m 554.4,245.1 -25.8,65.4 -24.8,-65.3 c -0.5,-1.2 -1.7,-2.1 -3,-2.1 h -24.7 c -2.2,0 -3.8,2.3 -3,4.3 l 39.8,103.2 -17.4,42.2 c -0.9,2.1 0.7,4.4 3,4.4 h 24.6 c 1.3,0 2.5,-0.8 3,-2 l 58.8,-147.9 c 0.8,-2.1 -0.7,-4.4 -3,-4.4 h -24.5 c -1.3,0.1 -2.5,0.9 -3,2.2 z"
   id="path821"
   inkscape:connector-curvature="0"
   style="fill:#38393d" />
</g>
<path
   class="st0"
   d="m 398,152 h 24.1 c 1.8,0 3.2,-1.4 3.2,-3.2 V 3.2 C 425.3,1.4 423.9,0 422.1,0 H 398 c -1.8,0 -3.2,1.4 -3.2,3.2 v 145.6 c 0,1.8 1.5,3.2 3.2,3.2 z"
   id="path825"
   inkscape:connector-curvature="0"
   style="fill:#38393d" />
<path
   class="st0"
   d="m 326.5,40.6 c -12.2,0 -23.2,4.7 -31.5,12.3 -8.6,-7.8 -20,-12.6 -32.6,-12.3 -25.7,0.6 -45.7,22.5 -45.7,48.1 v 59.7 c 0,1.8 1.4,3.2 3.2,3.2 H 244 c 1.8,0 3.2,-1.4 3.2,-3.2 V 88 c 0,-8.5 6.2,-16 14.6,-16.9 9.6,-1 17.8,6.5 17.9,15.9 0,0.1 0,0.2 0,0.3 h 0.1 v 61.5 c 0,1.8 1.4,3.2 3.2,3.2 h 24.1 c 1.8,0 3.2,-1.4 3.2,-3.2 V 87.3 c 0,-0.1 0,-0.2 0,-0.3 0.2,-8.8 7.4,-16 16.3,-16 9,0 16.3,7.3 16.3,16.3 h 0.1 v 61.5 c 0,1.8 1.4,3.2 3.2,3.2 h 24.1 c 1.8,0 3.2,-1.4 3.2,-3.2 V 87.3 h -0.1 c -0.1,-25.7 -21,-46.7 -46.9,-46.7 z"
   id="path827"
   inkscape:connector-curvature="0"
   style="fill:#38393d" />
<path
   class="st1"
   d="m 631.2,151.6 h 93.4 v -0.1 c 0.8,0 1.7,0.1 2.5,0.1 25.9,0 46.8,-21 46.8,-46.8 C 773.9,79 752.9,58 727.1,58 v 0 c -0.5,0 -1,0 -1.5,0 0,0 0,0 0,0 -12,0.3 -26.8,5 -40.3,22.9 z"
   id="path829"
   inkscape:connector-curvature="0"
   style="clip-rule:evenodd;fill:#17b3b4;fill-rule:evenodd" />
<path
   class="st2"
   d="m 669.5,13.2 c -20,0 -37.6,10.2 -48,25.6 6.9,4.5 11.9,11.6 13.6,20 -4,-6.5 -10.3,-11.4 -17.7,-13.6 -0.4,-0.1 -0.9,-0.2 -1.3,-0.3 -0.3,-0.1 -0.5,-0.1 -0.8,-0.2 -0.5,-0.1 -0.9,-0.2 -1.4,-0.3 -0.3,0 -0.5,-0.1 -0.8,-0.1 -0.5,-0.1 -1,-0.1 -1.5,-0.2 -0.2,0 -0.4,-0.1 -0.7,-0.1 -0.7,-0.1 -1.5,-0.1 -2.2,-0.1 -17.1,0 -30.9,13.9 -30.9,30.9 0,0.6 0,1.2 0.1,1.8 0,0.1 0,0.2 0,0.2 0.1,1.8 0.4,3.5 0.8,5.1 -14.4,4.6 -24.8,18.1 -24.8,34 0,8.6 3.1,16.5 8.1,22.7 1.5,1.8 3.1,3.4 4.8,4.8 0.9,0.7 1.8,1.4 2.7,2.1 5.7,3.8 12.6,6.1 20,6.1 13.4,0 23.6,-7.4 29.5,-14.6 L 671.3,69 C 683.6,51.9 698.7,41.6 717.6,39 707.3,23.5 689.6,13.2 669.5,13.2 Z"
   id="path831"
   inkscape:connector-curvature="0"
   style="clip-rule:evenodd;fill:#36e2da;fill-rule:evenodd" />
<g
   id="g835"
   transform="translate(-34,-198.7)">
	<path
   class="st0"
   d="m 788.4,223.8 v -10.5 h -4 v -1.8 h 10.1 v 1.8 h -4 v 10.5 z m 7.5,0 v -12.4 h 3 l 3.1,9.9 3,-9.9 h 3 v 12.4 h -1.9 v -10.4 l -3.2,10.4 H 801 l -3.3,-10.5 v 10.5 z"
   id="path833"
   inkscape:connector-curvature="0"
   style="fill:#38393d" />
</g>
</svg>