<?xml version="1.0" encoding="UTF-8" standalone="no"?>
<!-- Generator: Adobe Illustrator 22.0.1, SVG Export Plug-In . SVG Version: 6.00 Build 0)  -->

<svg
   xmlns:dc="http://purl.org/dc/elements/1.1/"
   xmlns:cc="http://creativecommons.org/ns#"
   xmlns:rdf="http://www.w3.org/1999/02/22-rdf-syntax-ns#"
   xmlns:svg="http://www.w3.org/2000/svg"
   xmlns="http://www.w3.org/2000/svg"
   xmlns:sodipodi="http://sodipodi.sourceforge.net/DTD/sodipodi-0.dtd"
   xmlns:inkscape="http://www.inkscape.org/namespaces/inkscape"
   version="1.1"
   id="Layer_1"
   x="0px"
   y="0px"
   viewBox="0 0 230.00001 149.99999"
   xml:space="preserve"
   sodipodi:docname="tymly-motif.svg"
   width="230"
   height="150"
   inkscape:version="0.92.3 (2405546, 2018-03-11)"><metadata
   id="metadata4674"><rdf:RDF><cc:Work
       rdf:about=""><dc:format>image/svg+xml</dc:format><dc:type
         rdf:resource="http://purl.org/dc/dcmitype/StillImage" /><dc:title></dc:title></cc:Work></rdf:RDF></metadata><defs
   id="defs4672" /><sodipodi:namedview
   pagecolor="#ffffff"
   bordercolor="#666666"
   borderopacity="1"
   objecttolerance="10"
   gridtolerance="10"
   guidetolerance="10"
   inkscape:pageopacity="0"
   inkscape:pageshadow="2"
   inkscape:window-width="1920"
   inkscape:window-height="986"
   id="namedview4670"
   showgrid="false"
   inkscape:zoom="0.75859851"
   inkscape:cx="151.45"
   inkscape:cy="155.55"
   inkscape:window-x="-11"
   inkscape:window-y="-11"
   inkscape:window-maximized="1"
   inkscape:current-layer="Layer_1" />
<style
   type="text/css"
   id="style4647">
	.st0{fill:#FFFFFF;}
	.st1{fill-rule:evenodd;clip-rule:evenodd;fill:#17B3B4;}
	.st2{fill-rule:evenodd;clip-rule:evenodd;fill:#36E2DA;}
</style>
<path
   class="st0"
   d="m 209.3,169.79999 v -6.5 h -2.5 v -1.1 h 6.2 v 1.1 h -2.5 v 6.5 z m 4.6,0 v -7.6 h 1.8 l 1.9,6.1 1.8,-6.1 h 1.8 v 7.6 H 220 v -6.4 l -2,6.4 h -1 l -2,-6.5 v 6.5 z"
   id="path4649"
   inkscape:connector-curvature="0"
   style="fill:#ffffff" />

<path
   class="st1"
   d="m 81.1,143.49999 h 93 v -0.1 c 0.8,0 1.7,0.1 2.5,0.1 25.7,0 46.6,-20.9 46.6,-46.599992 0,-25.7 -20.9,-46.6 -46.6,-46.6 v 0 c -0.5,0 -1,0 -1.5,0 v 0 c -11.9,0.3 -26.7,5 -40.1,22.8 z"
   id="path4665"
   inkscape:connector-curvature="0"
   style="clip-rule:evenodd;fill:#17b3b4;fill-rule:evenodd" />
<path
   class="st2"
   d="m 119.2,5.6999939 c -19.9,0 -37.4,10.1000001 -47.7,25.5000001 6.9,4.400004 11.9,11.500004 13.5,19.800004 -4,-6.5 -10.2,-11.4 -17.7,-13.5 -0.9,-0.3 -1.9,-0.5 -2.8,-0.6 -0.5,-0.1 -0.9,-0.2 -1.3,-0.3 -1.4,-0.2 -2.9,-0.3 -4.4,-0.3 -17,0 -30.8,13.8 -30.8,30.8 0,1.2 0.1,2.3 0.2,3.5 0,0.2 0.1,0.4 0.1,0.5 0.1,1 0.3,2.1 0.6,3.1 -14.3,4.6 -24.7,18 -24.7,33.799992 0,8.6 3,16.5 8.1,22.6 1.4,1.8 3.1,3.4 4.8,4.8 0.9,0.7 1.8,1.4 2.7,2 5.7,3.8 12.5,6.1 19.9,6.1 13.4,0 23.4,-7.4 29.4,-14.5 l 52,-67.699992 c 12.2,-17 27.3,-27.3 46.1,-29.800004 -10.4,-15.6 -28,-25.8000001 -48,-25.8000001 z"
   id="path4667"
   inkscape:connector-curvature="0"
   style="clip-rule:evenodd;fill:#36e2da;fill-rule:evenodd" />
</svg>